<mxfile host="Electron" modified="2024-05-31T14:32:54.351Z" agent="Mozilla/5.0 (Windows NT 10.0; Win64; x64) AppleWebKit/537.36 (KHTML, like Gecko) draw.io/24.4.8 Chrome/124.0.6367.207 Electron/30.0.6 Safari/537.36" etag="zMz4ia2R5HKyRC0mmocK" version="24.4.8" type="device">
  <diagram name="第 1 页" id="bbYAsJ9AS1H-cQh3gX90">
    <mxGraphModel dx="2074" dy="1197" grid="1" gridSize="10" guides="1" tooltips="1" connect="1" arrows="1" fold="1" page="1" pageScale="1" pageWidth="690" pageHeight="980" math="0" shadow="0">
      <root>
        <mxCell id="0" />
        <mxCell id="1" parent="0" />
        <mxCell id="JGUKwS1q1bDIkYwTgo52-17" value="" style="rounded=0;whiteSpace=wrap;html=1;sketch=1;curveFitting=1;jiggle=2;fillColor=#C8E6D0;strokeColor=#0e8088;" parent="1" vertex="1">
          <mxGeometry x="30" y="20" width="1200" height="920" as="geometry" />
        </mxCell>
        <mxCell id="vOWczvrueF11Am09t13T-1" value="&lt;i&gt;&lt;font size=&quot;1&quot; style=&quot;&quot; face=&quot;Courier New&quot;&gt;&lt;b style=&quot;font-size: 18px;&quot;&gt;UserInfo queryUserInfoByToken(String loginToken);&lt;/b&gt;&lt;/font&gt;&lt;/i&gt;" style="rounded=1;whiteSpace=wrap;html=1;fillColor=#fff2cc;strokeColor=#d6b656;sketch=1;curveFitting=1;jiggle=2;" parent="1" vertex="1">
          <mxGeometry x="120" y="280" width="620" height="90" as="geometry" />
        </mxCell>
        <mxCell id="JGUKwS1q1bDIkYwTgo52-1" value="&lt;i&gt;&lt;font size=&quot;1&quot; style=&quot;&quot; face=&quot;Courier New&quot;&gt;&lt;b style=&quot;font-size: 18px;&quot;&gt;List&amp;lt;TaskInfo&amp;gt; queryUserTaskInfos(UserInfo user);&lt;/b&gt;&lt;/font&gt;&lt;/i&gt;" style="rounded=1;whiteSpace=wrap;html=1;fillColor=#fff2cc;strokeColor=#d6b656;sketch=1;curveFitting=1;jiggle=2;" parent="1" vertex="1">
          <mxGeometry x="120" y="420" width="620" height="90" as="geometry" />
        </mxCell>
        <mxCell id="JGUKwS1q1bDIkYwTgo52-2" value="&lt;i&gt;&lt;font size=&quot;1&quot; style=&quot;&quot; face=&quot;Courier New&quot;&gt;&lt;b style=&quot;font-size: 18px;&quot;&gt;WeatherInfo queryWeather(Double&amp;nbsp;&lt;/b&gt;&lt;/font&gt;&lt;/i&gt;&lt;span style=&quot;background-color: initial; font-size: 18px;&quot;&gt;&lt;font face=&quot;Courier New&quot;&gt;&lt;b&gt;&lt;i&gt;latitude, Double l&lt;/i&gt;&lt;/b&gt;&lt;/font&gt;&lt;/span&gt;&lt;i&gt;&lt;font style=&quot;&quot; face=&quot;Courier New&quot;&gt;&lt;span style=&quot;font-size: 18px;&quot;&gt;&lt;b&gt;ongitude&lt;/b&gt;&lt;/span&gt;&lt;b style=&quot;font-size: 18px;&quot;&gt;);&lt;/b&gt;&lt;/font&gt;&lt;/i&gt;" style="rounded=1;whiteSpace=wrap;html=1;fillColor=#fff2cc;strokeColor=#d6b656;sketch=1;curveFitting=1;jiggle=2;" parent="1" vertex="1">
          <mxGeometry x="120" y="570" width="740" height="90" as="geometry" />
        </mxCell>
        <mxCell id="JGUKwS1q1bDIkYwTgo52-3" value="&lt;i&gt;&lt;font size=&quot;1&quot; style=&quot;&quot; face=&quot;Courier New&quot;&gt;&lt;b style=&quot;font-size: 18px;&quot;&gt;MajorPageResponse buildResponse(UserInfo&amp;nbsp;&lt;/b&gt;&lt;/font&gt;&lt;/i&gt;&lt;span style=&quot;background-color: initial; font-size: 18px;&quot;&gt;&lt;font face=&quot;Courier New&quot;&gt;&lt;b&gt;&lt;i&gt;userInfo,&amp;nbsp;&lt;/i&gt;&lt;/b&gt;&lt;/font&gt;&lt;/span&gt;&lt;div&gt;&lt;span style=&quot;background-color: initial; font-size: 18px;&quot;&gt;&lt;font face=&quot;Courier New&quot;&gt;&lt;b&gt;&lt;i&gt;List&amp;lt;TaskInfo&amp;gt; taskInfos, WeatherInfo weatherInfo&lt;/i&gt;&lt;/b&gt;&lt;/font&gt;&lt;/span&gt;&lt;i&gt;&lt;font style=&quot;&quot; face=&quot;Courier New&quot;&gt;&lt;b style=&quot;font-size: 18px;&quot;&gt;);&lt;/b&gt;&lt;/font&gt;&lt;/i&gt;&lt;/div&gt;" style="rounded=1;whiteSpace=wrap;html=1;fillColor=#fff2cc;strokeColor=#d6b656;sketch=1;curveFitting=1;jiggle=2;" parent="1" vertex="1">
          <mxGeometry x="120" y="720" width="740" height="90" as="geometry" />
        </mxCell>
        <mxCell id="JGUKwS1q1bDIkYwTgo52-4" value="&lt;font size=&quot;1&quot; face=&quot;Courier New&quot;&gt;&lt;i&gt;&lt;b style=&quot;font-size: 18px;&quot;&gt;MajorPageRequest&lt;/b&gt;&lt;/i&gt;&lt;/font&gt;" style="swimlane;fontStyle=0;childLayout=stackLayout;horizontal=1;startSize=30;horizontalStack=0;resizeParent=1;resizeParentMax=0;resizeLast=0;collapsible=1;marginBottom=0;whiteSpace=wrap;html=1;fillColor=#f8cecc;strokeColor=#b85450;sketch=1;curveFitting=1;jiggle=2;rounded=1;" parent="1" vertex="1">
          <mxGeometry x="355" y="80" width="270" height="120" as="geometry" />
        </mxCell>
        <mxCell id="JGUKwS1q1bDIkYwTgo52-5" value="&lt;span style=&quot;background-color: initial; text-align: center; font-size: 18px;&quot;&gt;&lt;font face=&quot;Courier New&quot;&gt;&lt;b&gt;&lt;i&gt;Double&amp;nbsp;&lt;/i&gt;&lt;/b&gt;&lt;/font&gt;&lt;/span&gt;&lt;i style=&quot;text-align: center;&quot;&gt;&lt;font face=&quot;Courier New&quot;&gt;&lt;span style=&quot;font-size: 18px;&quot;&gt;&lt;b&gt;Longitude&lt;/b&gt;&lt;/span&gt;&lt;/font&gt;&lt;/i&gt;" style="text;strokeColor=#b85450;fillColor=#f8cecc;align=left;verticalAlign=middle;spacingLeft=4;spacingRight=4;overflow=hidden;points=[[0,0.5],[1,0.5]];portConstraint=eastwest;rotatable=0;whiteSpace=wrap;html=1;sketch=1;curveFitting=1;jiggle=2;rounded=1;" parent="JGUKwS1q1bDIkYwTgo52-4" vertex="1">
          <mxGeometry y="30" width="270" height="30" as="geometry" />
        </mxCell>
        <mxCell id="JGUKwS1q1bDIkYwTgo52-6" value="&lt;i style=&quot;text-align: center;&quot;&gt;&lt;font size=&quot;1&quot; face=&quot;Courier New&quot;&gt;&lt;b style=&quot;font-size: 18px;&quot;&gt;Double&amp;nbsp;&lt;/b&gt;&lt;/font&gt;&lt;/i&gt;&lt;span style=&quot;text-align: center; background-color: initial; font-size: 18px;&quot;&gt;&lt;font face=&quot;Courier New&quot;&gt;&lt;b&gt;&lt;i&gt;latitude&lt;/i&gt;&lt;/b&gt;&lt;/font&gt;&lt;/span&gt;" style="text;strokeColor=#b85450;fillColor=#f8cecc;align=left;verticalAlign=middle;spacingLeft=4;spacingRight=4;overflow=hidden;points=[[0,0.5],[1,0.5]];portConstraint=eastwest;rotatable=0;whiteSpace=wrap;html=1;sketch=1;curveFitting=1;jiggle=2;rounded=1;" parent="JGUKwS1q1bDIkYwTgo52-4" vertex="1">
          <mxGeometry y="60" width="270" height="30" as="geometry" />
        </mxCell>
        <mxCell id="JGUKwS1q1bDIkYwTgo52-7" value="&lt;i style=&quot;text-align: center;&quot;&gt;&lt;font size=&quot;1&quot; face=&quot;Courier New&quot;&gt;&lt;b style=&quot;font-size: 18px;&quot;&gt;String loginToken&lt;/b&gt;&lt;/font&gt;&lt;/i&gt;" style="text;strokeColor=#b85450;fillColor=#f8cecc;align=left;verticalAlign=middle;spacingLeft=4;spacingRight=4;overflow=hidden;points=[[0,0.5],[1,0.5]];portConstraint=eastwest;rotatable=0;whiteSpace=wrap;html=1;sketch=1;curveFitting=1;jiggle=2;rounded=1;" parent="JGUKwS1q1bDIkYwTgo52-4" vertex="1">
          <mxGeometry y="90" width="270" height="30" as="geometry" />
        </mxCell>
        <mxCell id="JGUKwS1q1bDIkYwTgo52-9" value="" style="curved=1;endArrow=classic;html=1;rounded=0;fillColor=#d5e8d4;strokeColor=#82b366;sketch=1;curveFitting=1;jiggle=2;entryX=0.823;entryY=0.222;entryDx=0;entryDy=0;entryPerimeter=0;" parent="1" target="vOWczvrueF11Am09t13T-1" edge="1">
          <mxGeometry width="50" height="50" relative="1" as="geometry">
            <mxPoint x="630" y="190" as="sourcePoint" />
            <mxPoint x="610" y="320" as="targetPoint" />
            <Array as="points">
              <mxPoint x="720" y="220" />
            </Array>
          </mxGeometry>
        </mxCell>
        <mxCell id="JGUKwS1q1bDIkYwTgo52-10" value="" style="curved=1;endArrow=classic;html=1;rounded=0;fillColor=#d5e8d4;strokeColor=#82b366;sketch=1;curveFitting=1;jiggle=2;exitX=0.177;exitY=0.778;exitDx=0;exitDy=0;exitPerimeter=0;entryX=0.839;entryY=0.333;entryDx=0;entryDy=0;entryPerimeter=0;" parent="1" source="vOWczvrueF11Am09t13T-1" target="JGUKwS1q1bDIkYwTgo52-1" edge="1">
          <mxGeometry width="50" height="50" relative="1" as="geometry">
            <mxPoint x="250" y="350" as="sourcePoint" />
            <mxPoint x="600" y="410" as="targetPoint" />
            <Array as="points">
              <mxPoint x="320" y="390" />
              <mxPoint x="550" y="390" />
            </Array>
          </mxGeometry>
        </mxCell>
        <mxCell id="JGUKwS1q1bDIkYwTgo52-11" value="" style="curved=1;endArrow=classic;html=1;rounded=0;fillColor=#d5e8d4;strokeColor=#82b366;sketch=1;curveFitting=1;jiggle=2;entryX=0.595;entryY=0.333;entryDx=0;entryDy=0;entryPerimeter=0;" parent="1" target="JGUKwS1q1bDIkYwTgo52-2" edge="1">
          <mxGeometry width="50" height="50" relative="1" as="geometry">
            <mxPoint x="640" y="160" as="sourcePoint" />
            <mxPoint x="820" y="500" as="targetPoint" />
            <Array as="points">
              <mxPoint x="770" y="180" />
              <mxPoint x="880" y="390" />
              <mxPoint x="750" y="540" />
            </Array>
          </mxGeometry>
        </mxCell>
        <mxCell id="JGUKwS1q1bDIkYwTgo52-12" value="" style="curved=1;endArrow=classic;html=1;rounded=0;fillColor=#d5e8d4;strokeColor=#82b366;sketch=1;curveFitting=1;jiggle=2;entryX=0.851;entryY=0.222;entryDx=0;entryDy=0;entryPerimeter=0;" parent="1" target="JGUKwS1q1bDIkYwTgo52-2" edge="1">
          <mxGeometry width="50" height="50" relative="1" as="geometry">
            <mxPoint x="630" y="120" as="sourcePoint" />
            <mxPoint x="560" y="570" as="targetPoint" />
            <Array as="points">
              <mxPoint x="770" y="150" />
              <mxPoint x="920" y="350" />
              <mxPoint x="860" y="530" />
            </Array>
          </mxGeometry>
        </mxCell>
        <mxCell id="JGUKwS1q1bDIkYwTgo52-13" value="" style="curved=1;endArrow=classic;html=1;rounded=0;fillColor=#d5e8d4;strokeColor=#82b366;sketch=1;curveFitting=1;jiggle=2;exitX=0.065;exitY=0.778;exitDx=0;exitDy=0;exitPerimeter=0;entryX=0.757;entryY=0.222;entryDx=0;entryDy=0;entryPerimeter=0;" parent="1" source="vOWczvrueF11Am09t13T-1" target="JGUKwS1q1bDIkYwTgo52-3" edge="1">
          <mxGeometry width="50" height="50" relative="1" as="geometry">
            <mxPoint x="20" y="400" as="sourcePoint" />
            <mxPoint x="350" y="500" as="targetPoint" />
            <Array as="points">
              <mxPoint x="30" y="460" />
              <mxPoint x="80" y="700" />
              <mxPoint x="380" y="690" />
              <mxPoint x="670" y="690" />
            </Array>
          </mxGeometry>
        </mxCell>
        <mxCell id="JGUKwS1q1bDIkYwTgo52-14" value="" style="curved=1;endArrow=classic;html=1;rounded=0;fillColor=#d5e8d4;strokeColor=#82b366;sketch=1;curveFitting=1;jiggle=2;exitX=0.065;exitY=0.778;exitDx=0;exitDy=0;exitPerimeter=0;entryX=0.392;entryY=0.778;entryDx=0;entryDy=0;entryPerimeter=0;" parent="1" target="JGUKwS1q1bDIkYwTgo52-3" edge="1">
          <mxGeometry width="50" height="50" relative="1" as="geometry">
            <mxPoint x="160" y="470" as="sourcePoint" />
            <mxPoint x="680" y="860" as="targetPoint" />
            <Array as="points">
              <mxPoint x="30" y="580" />
              <mxPoint x="60" y="940" />
            </Array>
          </mxGeometry>
        </mxCell>
        <mxCell id="JGUKwS1q1bDIkYwTgo52-15" value="" style="curved=1;endArrow=classic;html=1;rounded=0;fillColor=#d5e8d4;strokeColor=#82b366;sketch=1;curveFitting=1;jiggle=2;entryX=0.824;entryY=0.778;entryDx=0;entryDy=0;entryPerimeter=0;exitX=0.176;exitY=0.667;exitDx=0;exitDy=0;exitPerimeter=0;" parent="1" source="JGUKwS1q1bDIkYwTgo52-2" target="JGUKwS1q1bDIkYwTgo52-3" edge="1">
          <mxGeometry width="50" height="50" relative="1" as="geometry">
            <mxPoint x="280" y="550" as="sourcePoint" />
            <mxPoint x="800" y="720" as="targetPoint" />
            <Array as="points">
              <mxPoint x="490" y="690" />
              <mxPoint x="1010" y="700" />
              <mxPoint x="800" y="930" />
            </Array>
          </mxGeometry>
        </mxCell>
        <mxCell id="JGUKwS1q1bDIkYwTgo52-18" value="&lt;div style=&quot;text-align: center;&quot;&gt;&lt;span style=&quot;background-color: initial; font-size: 18px;&quot;&gt;&lt;font face=&quot;Courier New&quot;&gt;&lt;b&gt;&lt;i&gt;returnObj&lt;/i&gt;&lt;/b&gt;&lt;/font&gt;&lt;/span&gt;&lt;/div&gt;" style="text;strokeColor=#10739e;fillColor=#b1ddf0;align=left;verticalAlign=middle;spacingLeft=4;spacingRight=4;overflow=hidden;points=[[0,0.5],[1,0.5]];portConstraint=eastwest;rotatable=0;whiteSpace=wrap;html=1;sketch=1;curveFitting=1;jiggle=2;rounded=1;" parent="1" vertex="1">
          <mxGeometry x="370" y="880" width="110" height="30" as="geometry" />
        </mxCell>
        <mxCell id="JGUKwS1q1bDIkYwTgo52-19" value="" style="curved=1;endArrow=classic;html=1;rounded=0;fillColor=#d5e8d4;strokeColor=#82b366;sketch=1;curveFitting=1;jiggle=2;entryX=0;entryY=0.5;entryDx=0;entryDy=0;exitX=0.108;exitY=0.444;exitDx=0;exitDy=0;exitPerimeter=0;" parent="1" source="JGUKwS1q1bDIkYwTgo52-3" target="JGUKwS1q1bDIkYwTgo52-18" edge="1">
          <mxGeometry width="50" height="50" relative="1" as="geometry">
            <mxPoint x="150" y="760" as="sourcePoint" />
            <mxPoint x="240" y="900" as="targetPoint" />
            <Array as="points">
              <mxPoint x="150" y="840" />
            </Array>
          </mxGeometry>
        </mxCell>
        <mxCell id="JGUKwS1q1bDIkYwTgo52-20" value="&lt;i style=&quot;font-family: &amp;quot;Courier New&amp;quot;; font-size: x-small; text-align: center;&quot;&gt;&lt;b style=&quot;font-size: 18px;&quot;&gt;MajorPagePipeline&lt;/b&gt;&lt;/i&gt;" style="text;strokeColor=none;fillColor=none;align=left;verticalAlign=middle;spacingLeft=4;spacingRight=4;overflow=hidden;points=[[0,0.5],[1,0.5]];portConstraint=eastwest;rotatable=0;whiteSpace=wrap;html=1;" parent="1" vertex="1">
          <mxGeometry x="60" y="30" width="200" height="30" as="geometry" />
        </mxCell>
        <mxCell id="JGUKwS1q1bDIkYwTgo52-21" value="" style="shape=flexArrow;endArrow=classic;html=1;rounded=0;exitX=0.098;exitY=1.033;exitDx=0;exitDy=0;exitPerimeter=0;entryX=0.098;entryY=-0.033;entryDx=0;entryDy=0;entryPerimeter=0;" parent="1" source="vOWczvrueF11Am09t13T-1" target="JGUKwS1q1bDIkYwTgo52-1" edge="1">
          <mxGeometry width="50" height="50" relative="1" as="geometry">
            <mxPoint x="190" y="410" as="sourcePoint" />
            <mxPoint x="180" y="410" as="targetPoint" />
          </mxGeometry>
        </mxCell>
        <mxCell id="JGUKwS1q1bDIkYwTgo52-22" value="" style="shape=flexArrow;endArrow=classic;html=1;rounded=0;exitX=0.098;exitY=1.033;exitDx=0;exitDy=0;exitPerimeter=0;entryX=0.098;entryY=-0.033;entryDx=0;entryDy=0;entryPerimeter=0;" parent="1" edge="1">
          <mxGeometry width="50" height="50" relative="1" as="geometry">
            <mxPoint x="191" y="520" as="sourcePoint" />
            <mxPoint x="191" y="564" as="targetPoint" />
          </mxGeometry>
        </mxCell>
        <mxCell id="JGUKwS1q1bDIkYwTgo52-23" value="" style="shape=flexArrow;endArrow=classic;html=1;rounded=0;exitX=0.098;exitY=1.033;exitDx=0;exitDy=0;exitPerimeter=0;entryX=0.098;entryY=-0.033;entryDx=0;entryDy=0;entryPerimeter=0;" parent="1" edge="1">
          <mxGeometry width="50" height="50" relative="1" as="geometry">
            <mxPoint x="201" y="670" as="sourcePoint" />
            <mxPoint x="201" y="714" as="targetPoint" />
          </mxGeometry>
        </mxCell>
        <mxCell id="JGUKwS1q1bDIkYwTgo52-24" value="" style="rounded=1;whiteSpace=wrap;html=1;sketch=1;jiggle=2;curveFitting=1;strokeColor=#b85450;align=center;verticalAlign=middle;fontFamily=Helvetica;fontSize=12;fontColor=default;fontStyle=0;fillColor=#f8cecc;" parent="1" vertex="1">
          <mxGeometry x="910" y="40" width="70" height="30" as="geometry" />
        </mxCell>
        <mxCell id="JGUKwS1q1bDIkYwTgo52-25" value="" style="shape=flexArrow;endArrow=classic;html=1;rounded=0;exitX=0.098;exitY=1.033;exitDx=0;exitDy=0;exitPerimeter=0;entryX=0.098;entryY=-0.033;entryDx=0;entryDy=0;entryPerimeter=0;" parent="1" edge="1">
          <mxGeometry width="50" height="50" relative="1" as="geometry">
            <mxPoint x="944.5" y="183" as="sourcePoint" />
            <mxPoint x="944.5" y="227" as="targetPoint" />
          </mxGeometry>
        </mxCell>
        <mxCell id="JGUKwS1q1bDIkYwTgo52-26" value="" style="rounded=1;whiteSpace=wrap;html=1;sketch=1;jiggle=2;curveFitting=1;strokeColor=#d6b656;align=center;verticalAlign=middle;fontFamily=Helvetica;fontSize=12;fontColor=default;fontStyle=0;fillColor=#fff2cc;" parent="1" vertex="1">
          <mxGeometry x="910" y="90" width="70" height="30" as="geometry" />
        </mxCell>
        <mxCell id="JGUKwS1q1bDIkYwTgo52-28" value="" style="rounded=1;whiteSpace=wrap;html=1;sketch=1;jiggle=2;curveFitting=1;strokeColor=#10739e;align=left;verticalAlign=middle;fontFamily=Helvetica;fontSize=12;fontColor=default;fontStyle=0;fillColor=#b1ddf0;spacingLeft=4;spacingRight=4;gradientColor=none;" parent="1" vertex="1">
          <mxGeometry x="910" y="140" width="70" height="30" as="geometry" />
        </mxCell>
        <mxCell id="JGUKwS1q1bDIkYwTgo52-29" value="&lt;div style=&quot;text-align: center;&quot;&gt;&lt;span style=&quot;background-color: initial; font-size: 18px;&quot;&gt;&lt;font face=&quot;Courier New&quot;&gt;初始入参(initValue)&lt;/font&gt;&lt;/span&gt;&lt;/div&gt;" style="text;strokeColor=none;fillColor=none;align=left;verticalAlign=middle;spacingLeft=4;spacingRight=4;overflow=hidden;points=[[0,0.5],[1,0.5]];portConstraint=eastwest;rotatable=0;whiteSpace=wrap;html=1;" parent="1" vertex="1">
          <mxGeometry x="990" y="40" width="210" height="30" as="geometry" />
        </mxCell>
        <mxCell id="JGUKwS1q1bDIkYwTgo52-31" value="&lt;div style=&quot;text-align: center;&quot;&gt;&lt;span style=&quot;background-color: initial; font-size: 18px;&quot;&gt;&lt;font face=&quot;Courier New&quot;&gt;执行节点(Node)&lt;/font&gt;&lt;/span&gt;&lt;/div&gt;" style="text;strokeColor=none;fillColor=none;align=left;verticalAlign=middle;spacingLeft=4;spacingRight=4;overflow=hidden;points=[[0,0.5],[1,0.5]];portConstraint=eastwest;rotatable=0;whiteSpace=wrap;html=1;" parent="1" vertex="1">
          <mxGeometry x="990" y="90" width="210" height="30" as="geometry" />
        </mxCell>
        <mxCell id="JGUKwS1q1bDIkYwTgo52-32" value="&lt;div style=&quot;text-align: center;&quot;&gt;&lt;span style=&quot;background-color: initial; font-size: 18px;&quot;&gt;&lt;font face=&quot;Courier New&quot;&gt;返回结果(returnObj)&lt;/font&gt;&lt;/span&gt;&lt;/div&gt;" style="text;strokeColor=none;fillColor=none;align=left;verticalAlign=middle;spacingLeft=4;spacingRight=4;overflow=hidden;points=[[0,0.5],[1,0.5]];portConstraint=eastwest;rotatable=0;whiteSpace=wrap;html=1;" parent="1" vertex="1">
          <mxGeometry x="990" y="140" width="210" height="30" as="geometry" />
        </mxCell>
        <mxCell id="JGUKwS1q1bDIkYwTgo52-33" value="&lt;div style=&quot;text-align: center;&quot;&gt;&lt;span style=&quot;background-color: initial; font-size: 18px;&quot;&gt;&lt;font face=&quot;Courier New&quot;&gt;执行顺序&lt;/font&gt;&lt;/span&gt;&lt;/div&gt;" style="text;strokeColor=none;fillColor=none;align=left;verticalAlign=middle;spacingLeft=4;spacingRight=4;overflow=hidden;points=[[0,0.5],[1,0.5]];portConstraint=eastwest;rotatable=0;whiteSpace=wrap;html=1;" parent="1" vertex="1">
          <mxGeometry x="990" y="190" width="210" height="30" as="geometry" />
        </mxCell>
        <mxCell id="FAXZkEMfxZnQdSqHwnY_-1" value="" style="curved=1;endArrow=classic;html=1;rounded=0;sketch=1;jiggle=2;curveFitting=1;strokeColor=#82b366;align=center;verticalAlign=middle;fontFamily=Helvetica;fontSize=11;fontColor=default;labelBackgroundColor=default;fillColor=#d5e8d4;" parent="1" edge="1">
          <mxGeometry width="50" height="50" relative="1" as="geometry">
            <mxPoint x="944.5" y="240" as="sourcePoint" />
            <mxPoint x="944.5" y="290" as="targetPoint" />
            <Array as="points" />
          </mxGeometry>
        </mxCell>
        <mxCell id="FAXZkEMfxZnQdSqHwnY_-2" value="&lt;div style=&quot;text-align: center;&quot;&gt;&lt;span style=&quot;background-color: initial; font-size: 18px;&quot;&gt;&lt;font face=&quot;Courier New&quot;&gt;参数来源(paramSource)&lt;/font&gt;&lt;/span&gt;&lt;/div&gt;" style="text;strokeColor=none;fillColor=none;align=left;verticalAlign=middle;spacingLeft=4;spacingRight=4;overflow=hidden;points=[[0,0.5],[1,0.5]];portConstraint=eastwest;rotatable=0;whiteSpace=wrap;html=1;" parent="1" vertex="1">
          <mxGeometry x="990" y="250" width="230" height="30" as="geometry" />
        </mxCell>
        <mxCell id="FAXZkEMfxZnQdSqHwnY_-3" value="" style="shape=flexArrow;endArrow=classic;html=1;rounded=0;exitX=0.098;exitY=1.033;exitDx=0;exitDy=0;exitPerimeter=0;entryX=0.098;entryY=-0.033;entryDx=0;entryDy=0;entryPerimeter=0;" parent="1" edge="1">
          <mxGeometry width="50" height="50" relative="1" as="geometry">
            <mxPoint x="424.5" y="220" as="sourcePoint" />
            <mxPoint x="424.5" y="264" as="targetPoint" />
          </mxGeometry>
        </mxCell>
      </root>
    </mxGraphModel>
  </diagram>
</mxfile>
